# xmcd CD database file
#
# Track frame offsets:
#	150
#	14747
#	27579
#	43523
#	56171
#	66716
#	80081
#	93860
#	110762
#	123212
#	139472
#	153785
#	166627
#	179184
#
# Disc length: 2562 seconds
#
# Revision: 0
# Processed by: cddbd v1.5.2PL0 Copyright (c) Steve Scherf et al.
# Submitted via: CDex 1.51
#
DISCID=cc0a000e
DTITLE=EAMONN McCANN - SING ME BACK HOME 
DYEAR=2004
DGENRE=Country
TTITLE0=LONG ROAD WITHOUT A TURN
TTITLE1=SING ME BACK HOME
TTITLE2=BORN IN BIRMINGHAM
TTITLE3=TRY NOT TO LOOK SO PRETTY
TTITLE4=LITTLE BITTY
TTITLE5=OLD LOG CABIN FOR SALE
TTITLE6=BOX
TTITLE7=WHEN YOU COME TO LAND
TTITLE8=REAL DEAL
TTITLE9=GALWAY BAY
TTITLE10=IS IT STILL OVER
TTITLE11=I CAN'T HELP IT
TTITLE12=YOUR LOVING EYES
TTITLE13=AMAZING GRACE
EXTD=
EXTT0=
EXTT1=
EXTT2=
EXTT3=
EXTT4=
EXTT5=
EXTT6=
EXTT7=
EXTT8=
EXTT9=
EXTT10=
EXTT11=
EXTT12=
EXTT13=
PLAYORDER=
